<svg width="16" height="16" viewBox="0 0 16 16" fill="none" xmlns="http://www.w3.org/2000/svg">
<path d="M8.40506 0.405029C4.21035 0.405029 0.810059 3.80532 0.810059 8.00003C0.810059 12.1947 4.21035 15.595 8.40506 15.595C12.5998 15.595 16.0001 12.1947 16.0001 8.00003C16.0001 3.80532 12.5998 0.405029 8.40506 0.405029ZM10.9252 11.3565C10.8058 11.4754 10.6805 11.6 10.5788 11.702C10.4873 11.7939 10.4226 11.9072 10.3899 12.03C10.3436 12.2033 10.3063 12.3785 10.2438 12.5466L9.71121 13.9814C9.28981 14.0733 8.85371 14.125 8.40506 14.125V13.2865C8.45681 12.9 8.17108 12.1761 7.71201 11.717C7.52826 11.5332 7.42506 11.2839 7.42506 11.0239V10.0436C7.42506 9.68716 7.23304 9.35947 6.92097 9.18705C6.48089 8.94359 5.85491 8.60334 5.42616 8.38744C5.07459 8.21042 4.74935 7.98502 4.45688 7.72134L4.43238 7.69929C4.22323 7.5105 4.03754 7.29725 3.8793 7.06413C3.59203 6.64242 3.12408 5.94877 2.81998 5.49797C3.44687 4.10453 4.57663 2.98549 5.98048 2.37759L6.71578 2.74539C7.04163 2.90832 7.42506 2.67159 7.42506 2.30715V1.96109C7.66975 1.92158 7.91873 1.89647 8.172 1.88697L9.03869 2.75366C9.2301 2.94507 9.2301 3.2553 9.03869 3.4467L8.89506 3.59003L8.5784 3.90669C8.48285 4.00224 8.48285 4.15751 8.5784 4.25306L8.72203 4.39669C8.81758 4.49224 8.81758 4.64751 8.72203 4.74306L8.47703 4.98806C8.43103 5.03397 8.36868 5.05975 8.30369 5.05972H8.02837C7.96467 5.05972 7.90342 5.08453 7.85748 5.12924L7.55368 5.42477C7.51644 5.46104 7.49169 5.50819 7.48299 5.55944C7.4743 5.61069 7.48211 5.66337 7.5053 5.70989L7.98274 6.66509C8.0642 6.82801 7.94568 7.01972 7.76377 7.01972H7.59105C7.53194 7.01972 7.47498 6.99829 7.43057 6.9597L7.14637 6.71286C7.08206 6.65707 7.00433 6.61898 6.92083 6.60233C6.83734 6.58568 6.75094 6.59106 6.67015 6.61792L5.71557 6.93612C5.64269 6.96042 5.57931 7.00704 5.5344 7.06937C5.48949 7.1317 5.46534 7.20658 5.46536 7.2834C5.46536 7.42214 5.54376 7.54862 5.6678 7.61079L6.00712 7.78045C6.2953 7.92469 6.61319 7.99972 6.93536 7.99972C7.25754 7.99972 7.62718 8.83548 7.91536 8.97972H9.95958C10.2196 8.97972 10.4686 9.08293 10.6526 9.26668L11.0719 9.68594C11.247 9.86115 11.3454 10.0988 11.3454 10.3465C11.3453 10.5342 11.3082 10.7201 11.236 10.8934C11.1639 11.0668 11.0583 11.2241 10.9252 11.3565ZM13.5807 8.55894C13.4034 8.51453 13.2487 8.40581 13.1473 8.2536L12.5967 7.42765C12.5161 7.30697 12.4731 7.16513 12.4731 7.02003C12.4731 6.87493 12.5161 6.73308 12.5967 6.61241L13.1966 5.71265C13.2677 5.60638 13.3651 5.52002 13.4796 5.46305L13.8771 5.2643C14.2912 6.08872 14.5301 7.01605 14.5301 8.00003C14.5301 8.26555 14.5074 8.52555 14.4743 8.78219L13.5807 8.55894Z" fill="#566672"/>
</svg>
